PathFileType	4	(X/Y/Z)	14_coords_data.trc
DataRate	CameraRate	NumFrames	NumMarkers	Units	OrigDataRate	OrigDataStartFrame	OrigNumFrames
30.0	30.0	9	21	m	30.0	22	53
Frame#	Time	THUMB_TIP	THUMB_IP	THUMB_MCP	THUMB_CMC	INDEX_TIP	INDEX_DIP	INDEX_PIP	INDEX_MCP	MIDDLE_TIP	MIDDLE_DIP	MIDDLE_PIP	MIDDLE_MCP	RING_TIP	RING_DIP	RING_PIP	RING_MCP	PINKY_TIP	PINKY_DIP	PINKY_PIP	PINKY_MCP	WRIST
X1	Y1	Z1	X2	Y2	Z2	X3	Y3	Z3	X4	Y4	Z4	X5	Y5	Z5	X6	Y6	Z6	X7	Y7	Z7	X8	Y8	Z8	X9	Y9	Z9	X10	Y10	Z10	X11	Y11	Z11	X12	Y12	Z12	X13	Y13	Z13	X14	Y14	Z14	X15	Y15	Z15	X16	Y16	Z16	X17	Y17	Z17	X18	Y18	Z18	X19	Y19	Z19	X20	Y20	Z20	X21	Y21	Z21
21	0.7	0.03436470031738281	-0.005432390213012696	0.9280809936523438	0.021727500915527345	-0.012096799850463868	0.94881298828125	0.005373429775238037	-0.009471229553222656	0.9731090087890625	-0.004395070075988768	0.014462300300598144	0.9879929809570313	-0.002328799962997436	-0.010261899948120117	0.9546929931640625	0.008059860229492188	-0.012753999710083008	0.9371099853515625	-0.000451611012220382	-0.015465999603271484	0.9172410278320312	-0.0314778995513916	-0.00987880039215088	0.937635986328125	0.005250820159912109	0.005084050178527832	0.9558259887695313	0.013541099548339843	0.007394139766693115	0.9442540283203125	0.0072410497665405275	0.00844357967376709	0.9171649780273438	-0.03179960060119629	0.012340299606323242	0.9299299926757812	0.001165860056877136	0.021591699600219727	0.9652589721679687	0.010267600059509278	0.02477519989013672	0.955635009765625	0.01130840015411377	0.029615100860595704	0.9310079956054688	-0.0271200008392334	0.03338330078125	0.9330280151367187	-0.00277266001701355	0.03830649948120117	0.9727379760742187	0.009042579650878907	0.03999140167236328	0.9637589721679688	0.010031800270080566	0.045553699493408206	0.9460700073242188	-0.018892400741577147	0.051417999267578125	0.9417869873046875	-0.031677400588989255	0.03461399841308594	1.0038499755859376
22	0.7333333333333333	0.03475699996948242	-0.010193599700927734	0.9271060180664062	0.020769699096679688	-0.01328380012512207	0.9480070190429688	0.004669610023498535	-0.010250599861145019	0.9723590087890625	-0.005478330135345459	0.013513899803161622	0.98810302734375	-0.00029995900392532304	-0.010410799980163574	0.9512479858398437	0.008165570259094238	-0.012984999656677246	0.9345139770507812	-0.0025619299411773684	-0.015339900016784667	0.9148880004882812	-0.032486801147460935	-0.009697890281677246	0.9374210205078125	0.0052924399375915525	0.004613170146942139	0.955844970703125	0.013925299644470215	0.0068088698387146	0.941489990234375	0.005475369930267334	0.008223770141601562	0.9148040161132812	-0.03286190032958984	0.012660400390625	0.9297059936523437	0.0009981489777565	0.02098430061340332	0.9657979736328125	0.010891300201416015	0.023938400268554687	0.9538560180664063	0.010535300254821777	0.029229799270629884	0.9287490234375	-0.027676000595092773	0.033386001586914064	0.9328380126953125	-0.00122527003288269	0.03686259841918945	0.9732839965820312	0.010131799697875976	0.03872409820556641	0.9630020141601563	0.01028339958190918	0.04464279937744141	0.9449860229492187	-0.01877599906921387	0.051104598999023435	0.9418670043945313	-0.032254199981689456	0.034319400787353516	1.003739990234375
23	0.7666666666666667	0.0345280990600586	-0.017600700378417967	0.9270590209960937	0.019330400466918946	-0.015832300186157226	0.9482039794921875	0.002812160015106201	-0.011281499862670899	0.9730650024414063	-0.006497980117797853	0.012182499885559082	0.9885029907226562	0.0019028899669647212	-0.011031399726867676	0.94875	0.008456859588623047	-0.01323680019378662	0.9307940063476563	-0.004814010143280029	-0.015048500061035155	0.9125880126953125	-0.03323559951782227	-0.009327320098876954	0.9370120239257812	0.005929570198059082	0.003447900056838989	0.9548790283203125	0.015368200302124024	0.005980780124664306	0.9373920288085937	0.0034456300735473634	0.008140049934387206	0.912364013671875	-0.03369430160522461	0.013160799980163574	0.9297540283203125	0.0032848598957061757	0.019729999542236327	0.9656710205078125	0.013317999839782714	0.02286280059814453	0.9505709838867188	0.009598589897155762	0.029026500701904295	0.9255969848632812	-0.027935800552368165	0.033584999084472655	0.9331060180664063	0.002972229957580566	0.034523601531982424	0.9734130249023437	0.012740799903869629	0.03727849960327148	0.9619080200195312	0.010609600067138672	0.043890399932861326	0.9438900146484375	-0.01838010025024414	0.050908401489257814	0.9424030151367188	-0.0328577995300293	0.034013999938964846	1.0041199951171875
24	0.8	0.03252289962768555	-0.02634160041809082	0.9290910034179688	0.01731839942932129	-0.020165300369262694	0.9496599731445312	0.001438940048217773	-0.01382610034942627	0.9738480224609375	-0.007766739845275879	0.010548199653625488	0.9895449829101562	0.006422540187835693	-0.010810400009155273	0.945802001953125	0.008900039672851563	-0.013625499725341796	0.9270490112304688	-0.007071549892425537	-0.015103400230407715	0.9104190063476563	-0.03333140182495117	-0.009092340469360352	0.937281982421875	0.011345100402832032	0.002714109897613525	0.9528709716796875	0.017916900634765625	0.005443540096282959	0.9324650268554687	0.002068949937820434	0.008180170059204102	0.909781005859375	-0.03363180160522461	0.013507599830627442	0.9296619873046875	0.010881500244140625	0.017890100479125978	0.9637780151367188	0.017720800399780273	0.021991500854492186	0.9456829833984375	0.008711589813232421	0.02916309928894043	0.9221220092773438	-0.02758919906616211	0.033669498443603514	0.9333480224609375	0.010887900352478027	0.03203810119628906	0.9727930297851562	0.017143299102783203	0.03649020004272461	0.9588809814453125	0.011088700294494628	0.043986301422119144	0.9425159912109375	-0.01788629913330078	0.05086650085449219	0.9427550048828125	-0.03314659881591797	0.033648601531982424	1.0045599975585937
25	0.8333333333333334	0.028875	-0.0337958984375	0.9311079711914062	0.014409099578857422	-0.024704999923706054	0.9513040161132813	-0.001183120012283325	-0.016796899795532227	0.9745430297851563	-0.009846460342407227	0.008910200119018555	0.9910650024414063	0.015954999923706054	-0.011502599716186524	0.9409769897460938	0.011421699523925782	-0.014064700126647948	0.9216939697265625	-0.00773774003982544	-0.014892600059509277	0.9093060302734375	-0.03242559814453125	-0.009150659561157227	0.9376950073242187	0.020472299575805663	0.001930649995803833	0.9485850219726563	0.02083639907836914	0.005331679821014405	0.9264940185546875	0.001143350005149841	0.008711310386657714	0.907822998046875	-0.03279489898681641	0.01372760009765625	0.9299749755859374	0.021434799194335937	0.016421300888061523	0.9589080200195312	0.022396499633789063	0.021763999938964843	0.9402479858398437	0.00853026008605957	0.029731000900268555	0.9197570190429688	-0.026614099502563476	0.03378850173950195	0.9340889892578125	0.021422599792480467	0.03061549949645996	0.9697949829101562	0.021856199264526366	0.037107799530029295	0.95527099609375	0.011893899917602539	0.04491699981689453	0.9414310302734376	-0.016938999176025392	0.05091749954223633	0.9437550048828125	-0.034059101104736325	0.03324739837646484	1.0053300170898438
26	0.8666666666666667	0.024751800537109375	-0.0393911018371582	0.9333880004882813	0.011371100425720215	-0.028755199432373046	0.9529609985351563	-0.0037824900150299073	-0.019604000091552734	0.9763579711914062	-0.012041799545288086	0.006910679817199707	0.9927890014648437	0.023520299911499024	-0.013279899597167969	0.9348839721679687	0.013381199836730957	-0.014841899871826172	0.9179110107421875	-0.007563079833984375	-0.014856699943542481	0.9092459716796875	-0.03155970001220703	-0.009517129898071288	0.938094970703125	0.030142000198364258	0.0009066330194473261	0.9406719970703125	0.023477399826049804	0.005014689922332763	0.9211829833984375	0.0008672270178794861	0.008987779617309571	0.9064910278320313	-0.032003101348876954	0.013782299995422364	0.93110400390625	0.03197139930725098	0.015184800148010253	0.9522659912109375	0.026961599349975586	0.021744300842285156	0.9346079711914063	0.00878931999206543	0.0299822998046875	0.9184299926757813	-0.025333599090576173	0.03355970001220703	0.9349210205078125	0.03128829956054688	0.03042140007019043	0.966333984375	0.026188400268554686	0.0379552001953125	0.9520289916992187	0.01324590015411377	0.04535340118408203	0.9410419921875	-0.015699999809265137	0.05069419860839844	0.9447429809570312	-0.03467630004882812	0.032501201629638675	1.0068499755859375
27	0.9	0.02144099998474121	-0.04501490020751953	0.9368729858398438	0.00872659969329834	-0.03236999893188477	0.955864013671875	-0.005710830211639404	-0.0221476993560791	0.9790009765625	-0.01336400032043457	0.005789579868316651	0.9948900146484375	0.027409700393676757	-0.015473600387573241	0.9285590209960938	0.01370989990234375	-0.01638479995727539	0.9144600219726563	-0.008222499847412109	-0.015506999969482422	0.9092620239257813	-0.030004899978637697	-0.010036700248718262	0.9392030029296875	0.03867490005493164	0.000182508006691932	0.9304819946289062	0.025482999801635743	0.004772220134735107	0.9146849975585938	0.00044318199157714804	0.008914839744567872	0.90531298828125	-0.03069580078125	0.013489600181579589	0.9327890014648438	0.0425364990234375	0.0149552001953125	0.9413140258789062	0.030654600143432617	0.02231290054321289	0.9270260009765625	0.00876049041748047	0.03018079948425293	0.9170139770507812	-0.023930999755859376	0.033085399627685544	0.9364929809570313	0.041694999694824215	0.03255419921875	0.9559169921875	0.030207700729370117	0.04001409912109375	0.946239990234375	0.014309399604797364	0.046141201019287106	0.9396890258789062	-0.014275500297546387	0.050040699005126955	0.946072021484375	-0.03543420028686523	0.03193779945373535	1.0083300170898437
28	0.9333333333333333	0.019545000076293947	-0.049944801330566405	0.9415579833984375	0.0072243399620056156	-0.03575680160522461	0.9597169799804688	-0.00735345983505249	-0.024304899215698242	0.9821190185546875	-0.014320599555969237	0.004811800003051757	0.9974080200195312	0.03090089988708496	-0.01826140022277832	0.9201489868164062	0.01367300033569336	-0.018239200592041014	0.9103590087890625	-0.008475899696350098	-0.01672629928588867	0.9095339965820313	-0.027077800750732423	-0.010808799743652344	0.940948974609375	0.04516510009765625	9.839659556746e-06	0.9143159790039063	0.02640570068359375	0.004975959777832031	0.9053709716796875	-0.00010448600351810401	0.009112709999084473	0.9043419799804687	-0.02816790008544922	0.01282509994506836	0.934541015625	0.050636600494384766	0.01642580032348633	0.925030029296875	0.03304859924316406	0.0236648006439209	0.9171209716796875	0.008778900146484374	0.030419300079345703	0.91539501953125	-0.021191200256347655	0.032302501678466794	0.9385880126953124	0.048918899536132814	0.03847639846801758	0.941989013671875	0.0326697998046875	0.04437120056152344	0.93822998046875	0.015252099990844727	0.04807120132446289	0.9379249877929687	-0.011394499778747558	0.04910120010375976	0.9478880004882813	-0.03579249954223633	0.030974599838256837	1.0099099731445313
29	0.9666666666666667	0.018434900283813477	-0.05445000076293945	0.946156005859375	0.006612549781799317	-0.038562999725341794	0.9634650268554688	-0.00842201042175293	-0.026010799407958984	0.9850490112304687	-0.014866600036621094	0.003609070062637329	0.9998049926757813	0.03381029891967773	-0.02093680000305176	0.9118410034179687	0.014243200302124023	-0.01981909942626953	0.9070040283203125	-0.007364530086517334	-0.017603200912475588	0.9103779907226562	-0.024084299087524415	-0.01115690040588379	0.942551025390625	0.047660701751708986	0.0012995799779891958	0.8981320190429688	0.026078500747680665	0.006141779899597168	0.8973109741210937	-2.4771999567747e-05	0.009662070274353028	0.9043900146484375	-0.024865299224853515	0.012449299812316895	0.936739990234375	0.052734500885009764	0.01953510093688965	0.9084650268554687	0.03267269897460937	0.0258656005859375	0.9087789916992187	0.008767330169677734	0.031024700164794923	0.9147020263671874	-0.017448400497436522	0.031762500762939454	0.940531005859375	0.0506875	0.04746620178222656	0.9298800048828125	0.03312039947509766	0.05018119812011719	0.9325980224609375	0.016059999465942384	0.05073400115966797	0.9375449829101562	-0.007339439868927002	0.047951099395751956	0.9502130126953126	-0.03639350128173828	0.0302056999206543	1.0120399780273437
